IKResults2
version=1
nRows=16
nColumns=40
inDegrees=yes

Units are S.I. units (second, meters, Newtons, ...)
If the header above contains a line with 'inDegrees', this indicates whether rotational values are in degrees (yes) or radians (no).

endheader
time	pelvis_tilt	pelvis_list	pelvis_rotation	pelvis_tx	pelvis_ty	pelvis_tz	hip_flexion_r	hip_adduction_r	hip_rotation_r	knee_angle_r	knee_angle_r_beta	ankle_angle_r	subtalar_angle_r	mtp_angle_r	hip_flexion_l	hip_adduction_l	hip_rotation_l	knee_angle_l	knee_angle_l_beta	ankle_angle_l	subtalar_angle_l	mtp_angle_l	lumbar_extension	lumbar_bending	lumbar_rotation	arm_flex_r	arm_add_r	arm_rot_r	elbow_flex_r	pro_sup_r	wrist_flex_r	wrist_dev_r	arm_flex_l	arm_add_l	arm_rot_l	elbow_flex_l	pro_sup_l	wrist_flex_l	wrist_dev_l
      1.76400000	      8.96635577	     -7.53079196	    -51.47814645	      1.13110512	      0.79550854	      0.29005311	     -3.82164649	    -40.87864918	    -27.27058162	     62.65234595	      1.09348972	     22.94190273	    -17.31506335	      2.25480875	     43.11821968	    -38.56700119	    -20.33177985	     84.37915161	      1.47269402	      5.98702647	      3.14827997	      0.00000000	    -25.11126974	      3.14250039	     -8.72256837	     49.84147366	    -52.06094243	     20.07817292	    107.50402849	     79.49788922	      0.00000000	      0.00000000	     51.59086593	    -45.02601609	    -24.50238703	     32.38382489	     70.98621848	      0.00000000	      0.00000000
      1.76800000	      9.02983574	     -7.38422426	    -51.97740984	      1.13434414	      0.79361351	      0.28965534	     -3.32420670	    -41.51024987	    -26.62635370	     62.82682982	      1.09653504	     23.14002502	    -16.57797287	      2.17079838	     43.31366116	    -39.01586172	    -20.45522033	     84.46618631	      1.47421306	      6.06575485	      3.11781727	      0.00000000	    -25.08211444	      2.88886337	     -8.52602378	     50.88046014	    -52.53347113	     20.55593816	    107.28720562	     79.65966014	      0.00000000	      0.00000000	     51.85292409	    -45.01571128	    -24.88640328	     32.22673259	     71.34244056	      0.00000000	      0.00000000
      1.77200000	      9.09360382	     -7.34102711	    -52.17281079	      1.13789277	      0.79217362	      0.28964568	     -3.41846072	    -41.90160070	    -26.54526044	     62.68395565	      1.09404141	     23.06944468	    -16.54018327	      2.16888814	     43.56050208	    -39.33531016	    -20.28143541	     84.38271818	      1.47275626	      6.10281825	      3.11005522	      0.00000000	    -25.11254518	      2.71868760	     -8.58499776	     51.26414789	    -52.84948959	     20.29390483	    107.20694146	     79.65058396	      0.00000000	      0.00000000	     51.96327677	    -45.17265938	    -24.93364209	     32.25071088	     71.34407914	      0.00000000	      0.00000000
      1.77600000	      9.19683120	     -7.30450573	    -52.38567452	      1.14153173	      0.79047047	      0.28905937	     -3.38117707	    -42.43518283	    -26.32558828	     62.71224415	      1.09453514	     22.89868488	    -16.14338329	      2.14671971	     43.87458549	    -39.57717597	    -20.00085512	     84.33497477	      1.47192298	      6.17298524	      3.09280429	      0.00000000	    -25.23276292	      2.55921644	     -8.51115797	     51.98192303	    -53.41557315	     20.26830719	    107.15448867	     79.63399936	      0.00000000	      0.00000000	     52.39987328	    -45.12690913	    -24.97766435	     32.16254699	     71.33429698	      0.00000000	      0.00000000
      1.78000000	      9.24476497	     -7.23395910	    -52.64032894	      1.14517298	      0.78882258	      0.28873697	     -3.31843874	    -42.89696656	    -26.11668590	     62.63900662	      1.09325691	     22.93749049	    -15.74993695	      2.12389564	     44.17285376	    -39.90018359	    -19.82230862	     84.16343133	      1.46892899	      6.28725414	      2.97829177	      0.00000000	    -25.26271203	      2.38872178	     -8.46159205	     52.58781713	    -53.92958800	     20.35526009	    107.05193842	     79.71469822	      0.00000000	      0.00000000	     52.75397283	    -45.19407991	    -24.94020140	     31.95896053	     71.30120837	      0.00000000	      0.00000000
      1.78400000	      9.28865033	     -7.11450553	    -52.92314176	      1.14878426	      0.78706570	      0.28846656	     -3.16888544	    -43.40008798	    -25.85368684	     62.60822339	      1.09271964	     23.04093457	    -15.29104550	      2.07925344	     44.48487186	    -40.22390299	    -19.67052887	     83.90705164	      1.46445432	      6.32957907	      2.86449245	      0.00000000	    -25.25882080	      2.16345907	     -8.43830779	     53.15638487	    -54.37715952	     20.34925235	    106.95953575	     79.80804170	      0.00000000	      0.00000000	     53.04068509	    -45.39014490	    -24.72942101	     31.76250290	     71.14147262	      0.00000000	      0.00000000
      1.78800000	      9.33803047	     -7.06682477	    -53.10722738	      1.15256689	      0.78552876	      0.28846199	     -3.26636276	    -43.77763944	    -25.76162069	     62.44970015	      1.08995288	     22.96714781	    -15.23843989	      2.07796162	     44.77727993	    -40.58316414	    -19.46831349	     83.59960728	      1.45908840	      6.39806078	      2.85715466	      0.00000000	    -25.30804898	      1.96989320	     -8.53402503	     53.46538019	    -54.74940305	     20.10453719	    106.84085844	     79.79967585	      0.00000000	      0.00000000	     53.15579341	    -45.62722999	    -24.76495179	     31.78508906	     71.11741095	      0.00000000	      0.00000000
      1.79200000	      9.40620610	     -7.00995998	    -53.27110622	      1.15629994	      0.78386384	      0.28778475	     -3.27224866	    -44.26796135	    -25.61531056	     62.39128091	      1.08893328	     22.92617975	    -14.60411188	      2.03105231	     45.12070312	    -40.77894054	    -19.14799651	     83.17280462	      1.45163929	      6.51873506	      2.79420831	      0.00000000	    -25.43090646	      1.78975264	     -8.48936245	     53.97690516	    -55.38365764	     19.98277962	    106.81330668	     79.76844082	      0.00000000	      0.00000000	     53.72543112	    -45.72711161	    -24.30993060	     31.52059287	     70.78963730	      0.00000000	      0.00000000
      1.79600000	      9.43464899	     -6.95776497	    -53.46677299	      1.16022002	      0.78229814	      0.28780294	     -3.36137193	    -44.65025385	    -25.55672465	     62.21704900	      1.08589236	     22.85437534	    -14.54673531	      2.02969300	     45.42380177	    -41.15109514	    -18.92399316	     82.73877809	      1.44406410	      6.59907429	      2.78052027	      0.00000000	    -25.48092312	      1.58757510	     -8.56531653	     54.24702300	    -55.78301091	     19.75724192	    106.61828336	     79.75692029	      0.00000000	      0.00000000	     53.85128294	    -45.99819940	    -24.34182134	     31.54815830	     70.76792683	      0.00000000	      0.00000000
      1.80000000	      9.44188047	     -6.89310237	    -53.60520040	      1.16408282	      0.78087128	      0.28729726	     -3.41178981	    -45.00505942	    -25.46024646	     62.02803719	      1.08259348	     22.68062175	    -14.28738159	      2.02064618	     45.73974387	    -41.37093004	    -18.63128935	     82.05662762	      1.43215832	      6.71200119	      2.77970953	      0.00000000	    -25.56064226	      1.43515470	     -8.59982015	     54.64836897	    -56.26409810	     19.56444849	    106.43168410	     79.75811236	      0.00000000	      0.00000000	     54.15966238	    -46.12209250	    -24.25861223	     31.57751543	     70.74318046	      0.00000000	      0.00000000
      1.80400000	      9.50657560	     -6.88018519	    -53.71295841	      1.16819669	      0.77924649	      0.28683051	     -3.61786138	    -45.46410006	    -25.50588729	     61.88655851	      1.08012421	     22.56408158	    -13.69026695	      1.98808355	     46.06444344	    -41.57869933	    -18.26227518	     81.45814711	      1.42171287	      6.77594163	      2.71269021	      0.00000000	    -25.70200245	      1.26843364	     -8.58637620	     54.98706970	    -57.04195969	     19.46758714	    106.34184216	     79.79860974	      0.00000000	      0.00000000	     54.74325437	    -46.25833948	    -23.87059519	     31.27377755	     70.73180821	      0.00000000	      0.00000000
      1.80800000	      9.49231876	     -6.81291372	    -53.88302867	      1.17228831	      0.77769004	      0.28667994	     -3.70753519	    -45.81170852	    -25.48117951	     61.65823629	      1.07613923	     22.47643255	    -13.56485920	      1.98243297	     46.38264620	    -41.92231034	    -18.03824465	     80.75238564	      1.40939501	      6.87316134	      2.68550510	      0.00000000	    -25.72559514	      1.09671038	     -8.68902542	     55.24732112	    -57.49266354	     19.19898851	    106.20696604	     79.76254728	      0.00000000	      0.00000000	     54.90557549	    -46.56251961	    -23.85205938	     31.27485034	     70.73602693	      0.00000000	      0.00000000
      1.81200000	      9.64710035	     -6.85632231	    -53.75453302	      1.17663576	      0.77652306	      0.28632711	     -4.48199049	    -46.24921289	    -26.04382110	     61.30673358	      1.07000435	     22.54508086	    -12.73823839	      1.89497169	     46.59379588	    -41.92212409	    -17.61237331	     79.89329176	      1.39440099	      6.84266322	      2.36565256	      0.00000000	    -25.97172489	      0.89134144	     -8.79396873	     54.91986120	    -58.26578986	     18.42858050	    106.26221803	     79.21796320	      0.00000000	      0.00000000	     55.70302278	    -46.72059340	    -22.90776154	     30.81642824	     71.02782695	      0.00000000	      0.00000000
      1.81600000	      9.59292521	     -6.77186333	    -53.91264451	      1.18085941	      0.77503875	      0.28613691	     -4.55856044	    -46.56577907	    -26.03671047	     61.05955354	      1.06569025	     22.36862536	    -12.58735639	      1.88898426	     46.91900248	    -42.24972312	    -17.39330458	     79.00831011	      1.37895515	      6.95444395	      2.37227691	      0.00000000	    -25.98173843	      0.73278614	     -8.87662891	     55.11810597	    -58.76541654	     18.25690492	    106.05063747	     79.20528306	      0.00000000	      0.00000000	     55.89287314	    -46.97866364	    -22.91694711	     30.86311079	     71.04189429	      0.00000000	      0.00000000
      1.82000000	      9.53708576	     -6.69141969	    -54.05060783	      1.18520213	      0.77359895	      0.28587829	     -4.67888822	    -46.87984317	    -26.06244201	     60.77183572	      1.06066863	     22.11701961	    -12.36127342	      1.87923508	     47.23932144	    -42.53514931	    -17.15321330	     78.05282214	      1.36227874	      7.07750192	      2.32742430	      0.00000000	    -25.99698466	      0.59341898	     -8.94431992	     55.27319530	    -59.33764063	     18.08076234	    105.84203104	     79.19213799	      0.00000000	      0.00000000	     56.12292586	    -47.21024459	    -22.87817628	     30.84748349	     71.09254416	      0.00000000	      0.00000000
      1.82400000	      9.45666325	     -6.61364485	    -54.18722476	      1.18959410	      0.77218670	      0.28559337	     -4.79314489	    -47.16433058	    -26.10123933	     60.47005245	      1.05540151	     21.90957627	    -12.11444783	      1.86926103	     47.56388454	    -42.84002274	    -16.93726862	     77.03654372	      1.34454133	      7.15717107	      2.30366430	      0.00000000	    -26.00764907	      0.46726241	     -9.03847130	     55.39329070	    -59.91892218	     17.87835232	    105.63748814	     79.16593475	      0.00000000	      0.00000000	     56.35489935	    -47.47787080	    -22.84815026	     30.81800141	     71.14861593	      0.00000000	      0.00000000
